<?xml version="1.0" encoding="UTF-8"?>
<svg width="420px" height="420px" viewBox="0 0 420 420" version="1.1" xmlns="http://www.w3.org/2000/svg" xmlns:xlink="http://www.w3.org/1999/xlink">
    <!-- Generator: Sketch 42 (36781) - http://www.bohemiancoding.com/sketch -->
    <title>shine1</title>
    <desc>Created with Sketch.</desc>
    <defs>
        <path d="M180,199 L240.848437,199 L240.848437,244.636328 L180,244.636328 L180,199 Z M195.212109,214.212109 L195.212109,229.424219 L225.636328,229.424219 L225.636328,214.212109 L195.212109,214.212109 Z" id="path-1"></path>
        <mask id="mask-2" maskContentUnits="userSpaceOnUse" maskUnits="objectBoundingBox" x="0" y="0" width="60.8484375" height="45.6363281" fill="white">
            <use xlink:href="#path-1"></use>
        </mask>
    </defs>
    <g id="[NEXT]Drops-Self-Service" stroke="none" stroke-width="1" fill="none" fill-rule="evenodd">
        <g id="shine1" fill="#6441A4">
            <rect id="Rectangle-18" x="165" y="130" width="14.7213962" height="39"></rect>
            <rect id="Rectangle-18" x="241" y="130" width="14.7213962" height="39"></rect>
            <path d="M96,169 L324.181641,169 L324.181641,305.908984 L96,305.908984 L96,169 Z M110.721396,184.212109 L110.721396,290.696875 L309.460244,290.696875 L309.460244,184.212109 L110.721396,184.212109 Z" id="Combined-Shape"></path>
            <path d="M127,199 L294.333203,199 L294.333203,275.060547 L127,275.060547 L127,199 Z M141.550713,214.212109 L141.550713,259.848438 L279.78249,259.848438 L279.78249,214.212109 L141.550713,214.212109 Z" id="Combined-Shape"></path>
            <use id="Combined-Shape" stroke="#6441A4" mask="url(#mask-2)" stroke-width="2" xlink:href="#path-1"></use>
            <path d="M286.518397,130.212109 L286.90394,130.212109 L293.079102,115 L294.738848,115 C294.738848,115 308.646342,114.158968 316.820943,122.606055 C324.995543,131.053142 324.181641,145.424219 324.181641,145.424219 L324.181641,183.454492 L96,183.454492 L96,145.424219 C96,145.424219 95.1543859,131.085911 103.360698,122.606055 C111.56701,114.126199 125.442792,115 125.442792,115 L280.866699,115 L286.518397,130.212109 Z M286.518397,130.212109 L132.80349,130.212109 C132.80349,130.212109 121.86018,129.201227 115.71167,135.554688 C109.563159,141.908148 110.721396,153.030273 110.721396,153.030273 L110.721396,168.242383 L309.460244,168.242383 L309.460244,153.030273 C309.460244,153.030273 310.706347,143.938925 303.494629,136.486816 C296.282911,129.034708 287.37815,130.212109 287.37815,130.212109 L286.90394,130.212109 L286.702637,130.708008 L286.518397,130.212109 Z" id="Combined-Shape"></path>
            <path d="M256.277556,102.438965 C256.277556,102.438965 269.546111,97.9814453 274.375701,87.1884766 C279.205291,76.3955078 282.335174,54 282.335174,54 L290.231658,54 C290.231658,54 292.368377,76.4936523 298.602752,87.8232422 C304.837127,99.152832 316.833709,101.346191 316.833709,101.346191 L316.833709,109.578125 C316.833709,109.578125 304.779998,112.430414 298.602752,124.931641 C292.425506,137.432868 290.231658,157.651855 290.231658,157.651855 L282.335174,157.651855 C282.335174,157.651855 280.155486,136.484375 274.614959,125.268555 C269.074431,114.052734 256.027068,110.230469 256.027068,110.230469 L256.277556,102.438965 Z M286.488369,81.2737982 C286.488369,81.2737982 284.028971,93.7305947 280.991507,98.3946226 C277.954043,103.05865 270.161187,106.377741 270.161187,106.377741 C270.161187,106.377741 277.956413,110.860864 280.991507,115.052091 C284.026601,119.243317 286.488369,130.642485 286.488369,130.642485 C286.488369,130.642485 289.260203,120.478842 293.154003,115.052091 C297.047802,109.625339 303.678118,106.377741 303.678118,106.377741 C303.678118,106.377741 298.411304,105.745364 293.154003,99.2146193 C287.896702,92.6838743 286.488369,81.2737982 286.488369,81.2737982 Z" id="Combined-Shape"></path>
            <path d="M323.079749,84.3754634 C323.079749,84.3754634 328.362383,84.002525 329.899996,80.5663302 C331.43761,77.1301353 331.573012,70 331.573012,70 L335.877547,70 C335.877547,70 335.628387,77.161382 337.613246,80.7684227 C339.598106,84.3754634 344.501624,84.3639597 344.501624,84.3639597 L344.501624,88.6026931 C344.501624,88.6026931 339.579918,88.6026931 337.613246,92.5827519 C335.646575,96.5628108 335.820686,103 335.820686,103 L331.472853,103 C331.472853,103 331.740127,96.260836 329.97617,92.6900164 C328.212213,89.1191969 323,88.6770806 323,88.6770806 L323.079749,84.3754634 Z" id="Combined-Shape"></path>
            <path d="M234.073661,57.0573016 C234.073661,57.0573016 242.473308,56.7128343 243.893536,53.5389684 C245.313763,50.3651024 245.438828,34 245.438828,34 L249.414743,34 C249.414743,34 249.184605,50.3939636 251.017935,53.7256326 C252.851264,57.0573016 261,57.0466761 261,57.0466761 L261,60.9618125 C261,60.9618125 252.834465,60.9618125 251.017935,64.6380224 C249.201405,68.3142324 249.362223,85.387328 249.362223,85.387328 L245.346316,85.387328 C245.346316,85.387328 245.593185,68.0353111 243.963894,64.7370981 C242.334603,61.438885 234,61.0305211 234,61.0305211 L234.073661,57.0573016 Z" id="Combined-Shape"></path>
        </g>
    </g>
</svg>